#!OML:ASF F:\VICON\USERDATA\INSTALL\rory3\rory3.ASF
:FULLY-SPECIFIED
:DEGREES
202
root 3.24416 18.4225 5.56729 -174.594 -17.6552 177.119
lowerback 9.34595 4.10256 1.5212
upperback 2.78392 5.44298 1.52873
thorax -2.33693 2.62198 0.125269
lowerneck -15.5305 -4.16538 -9.94457
upperneck 36.0462 -7.0939 2.89918
head 15.8435 -4.79169 1.46617
rclavicle 2.10712e-014 -2.70347e-014
rhumerus 28.4356 -10.6383 -58.9335
rradius 45.7092
rwrist -6.81988
rhand -31.3679 -4.11247
rfingers 7.12502
rthumb -4.6384 -34.0417
lclavicle 2.10712e-014 -2.70347e-014
lhumerus -28.7894 3.35981 84.3171
lradius 64.6743
lwrist 13.7576
lhand -6.65357 28.7072
lfingers 7.12502
lthumb 19.204 57.7791
rfemur 0.88567 -4.52873 25.0612
rtibia -2.38542e-015
rfoot -7.97981 -14.3905
rtoes 19.1057
lfemur -74.4017 -3.21286 -27.1266
ltibia 80.4107
lfoot -7.21676 -9.05301
ltoes -8.13676
203
root 3.24157 18.4132 5.51981 -174.489 -17.7 177.064
lowerback 9.2739 4.06047 1.48705
upperback 2.78449 5.38305 1.46626
thorax -2.2942 2.59397 0.0919302
lowerneck -15.4458 -4.16659 -10.0566
upperneck 35.9122 -7.09532 3.03818
head 15.7694 -4.78271 1.54944
rclavicle 2.70347e-014 -1.43125e-014
rhumerus 28.0403 -10.5396 -59.1116
rradius 46.2625
rwrist -7.86239
rhand -31.6501 -3.39113
rfingers 7.12502
rthumb -4.91089 -33.3142
lclavicle 2.70347e-014 -1.43125e-014
lhumerus -28.4923 3.21618 84.3089
lradius 64.9565
lwrist 14.0613
lhand -6.45947 28.8833
lfingers 7.12502
lthumb 19.3906 57.9365
rfemur 0.94845 -4.59944 25.0572
rtibia 9.54166e-015
rfoot -7.85913 -14.3551
rtoes 17.8144
lfemur -74.1509 -3.37654 -26.9989
ltibia 80.4142
lfoot -7.7209 -8.45914
ltoes -5.36823
204
root 3.23836 18.4104 5.47454 -174.365 -17.716 176.954
lowerback 9.40076 3.97755 1.37545
upperback 2.6718 5.27362 1.40078
thorax -2.48555 2.54083 0.0837947
lowerneck -15.378 -4.05028 -9.96951
upperneck 35.9232 -6.92917 2.94707
head 15.7341 -4.72067 1.5278
rclavicle -6.93758e-014 -1.59028e-014
rhumerus 27.5562 -10.1745 -59.1501
rradius 46.9635
rwrist -8.52097
rhand -31.4359 -3.47333
rfingers 7.12502
rthumb -4.70408 -33.4011
lclavicle -6.93758e-014 -1.59028e-014
lhumerus -28.2825 3.12293 84.2624
lradius 65.1802
lwrist 14.3438
lhand -6.2738 28.8612
lfingers 7.12502
lthumb 19.5691 57.8964
rfemur -1.05971 -4.62728 24.9678
rtibia 4.17912
rfoot -9.75166 -13.5759
rtoes 16.8594
lfemur -73.8985 -3.46636 -26.9905
ltibia 80.4721
lfoot -8.25242 -8.18665
ltoes -6.57467
205
root 3.23295 18.3998 5.43029 -174.27 -17.7271 176.983
lowerback 9.36409 3.91373 1.27774
upperback 2.66289 5.1811 1.45798
thorax -2.48924 2.49504 0.208877
lowerneck -15.3572 -3.96908 -9.84366
upperneck 35.9053 -6.77637 2.76103
head 15.6916 -4.66652 1.45596
rclavicle 2.42517e-014 -4.77083e-015
rhumerus 27.2082 -9.93366 -59.1983
rradius 47.8108
rwrist -8.91666
rhand -31.2393 -3.4309
rfingers 7.12502
rthumb -4.51423 -33.3628
lclavicle 2.42517e-014 -4.77083e-015
lhumerus -27.9091 3.0493 84.3554
lradius 65.4066
lwrist 14.584
lhand -6.42127 28.4139
lfingers 7.12502
lthumb 19.4273 57.4634
rfemur -1.91875 -4.64796 25.0145
rtibia 5.98106
rfoot -10.5514 -13.2506
rtoes 16.364
lfemur -73.6771 -3.53706 -26.7752
ltibia 80.6268
lfoot -8.72121 -8.35505
ltoes -4.90173
206
root 3.22948 18.3872 5.3884 -174.107 -17.7534 177.072
lowerback 9.25797 3.90594 1.25257
upperback 2.66027 5.16842 1.49866
thorax -2.43961 2.48964 0.273294
lowerneck -15.2867 -4.00112 -9.81597
upperneck 35.7656 -6.80681 2.74131
head 15.6066 -4.67021 1.44181
rclavicle -3.49861e-014 -1.74931e-014
rhumerus 26.5565 -10.2302 -59.5601
rradius 49.2656
rwrist -8.42727
rhand -31.1445 -3.10005
rfingers 7.12502
rthumb -4.42264 -33.0339
lclavicle -3.49861e-014 -1.74931e-014
lhumerus -27.428 2.69334 84.5194
lradius 65.7313
lwrist 14.8751
lhand -6.82076 28.7534
lfingers 7.12502
lthumb 19.0432 57.8412
rfemur -2.4856 -4.67338 25.1313
rtibia 6.97858
rfoot -11.0954 -12.9605
rtoes 16.709
lfemur -73.6101 -3.54971 -26.5681
ltibia 80.8513
lfoot -9.27975 -8.71085
ltoes -2.59549
207
root 3.22836 18.3872 5.34823 -173.899 -17.6964 177.192
lowerback 9.18969 3.91136 1.26958
upperback 2.60115 5.18197 1.53363
thorax -2.465 2.49765 0.300527
lowerneck -15.2488 -4.02313 -9.86706
upperneck 35.7084 -6.83565 2.78145
head 15.5766 -4.68116 1.46425
rclavicle 8.8658e-014 -3.97569e-014
rhumerus 25.8858 -10.5145 -59.886
rradius 50.7253
rwrist -7.49499
rhand -30.872 -2.54523
rfingers 7.12502
rthumb -4.1595 -32.4844
lclavicle 8.8658e-014 -3.97569e-014
lhumerus -26.9879 2.40987 84.7082
lradius 66.1547
lwrist 15.005
lhand -7.36891 30.2362
lfingers 7.12502
lthumb 18.516 59.375
rfemur -2.99933 -4.60702 25.2886
rtibia 7.74662
rfoot -11.4277 -12.7614
rtoes 16.8788
lfemur -73.7822 -3.39291 -26.5977
ltibia 81.1021
lfoot -10.0036 -8.46253
ltoes -3.39132
208
root 3.2267 18.3868 5.30867 -173.684 -17.5575 177.322
lowerback 9.06364 3.90059 1.2986
upperback 2.58131 5.17063 1.55005
thorax -2.41504 2.49331 0.310664
lowerneck -15.3433 -3.9759 -9.77102
upperneck 35.7431 -6.74872 2.68691
head 15.5992 -4.64371 1.42095
rclavicle -1.78906e-014 -3.02153e-014
rhumerus 25.4405 -10.5892 -60.1434
rradius 51.9273
rwrist -6.64325
rhand -30.7753 -2.16822
rfingers 7.12502
rthumb -4.06616 -32.1092
lclavicle -1.78906e-014 -3.02153e-014
lhumerus -26.418 2.31045 84.8308
lradius 66.3884
lwrist 15.0635
lhand -8.65666 30.5626
lfingers 7.12502
lthumb 17.2769 59.8146
rfemur -3.41143 -4.45814 25.4392
rtibia 8.29456
rfoot -11.6313 -12.5973
rtoes 16.9934
lfemur -74.0617 -3.17241 -26.6582
ltibia 81.3498
lfoot -10.5135 -7.98935
ltoes -6.58428
209
root 3.22173 18.383 5.27253 -173.493 -17.5649 177.284
lowerback 9.14541 3.83915 1.21117
upperback 2.51524 5.08757 1.53964
thorax -2.53543 2.45261 0.34868
lowerneck -15.3821 -3.93277 -9.70751
upperneck 35.8357 -6.70243 2.62761
head 15.6436 -4.63053 1.39029
rclavicle -3.22031e-014 -3.81667e-014
rhumerus 24.977 -10.5514 -60.3417
rradius 53.1225
rwrist -5.8791
rhand -30.7623 -2.29918
rfingers 7.12502
rthumb -4.05361 -32.2404
lclavicle -3.22031e-014 -3.81667e-014
lhumerus -25.7275 2.25479 84.9979
lradius 66.3437
lwrist 14.8403
lhand -9.53035 29.371
lfingers 7.12502
lthumb 16.4359 58.6947
rfemur -3.62017 -4.48386 25.4039
rtibia 8.57071
rfoot -11.7154 -12.4213
rtoes 17.0572
lfemur -74.1752 -3.19228 -26.7741
ltibia 81.5245
lfoot -10.8168 -7.65305
ltoes -4.6753
210
root 3.21874 18.3834 5.23714 -173.399 -17.6542 177.229
lowerback 9.23787 3.72825 1.20245
upperback 2.59552 4.93191 1.48162
thorax -2.49872 2.37314 0.30826
lowerneck -15.5172 -3.90305 -9.72389
upperneck 35.814 -6.66478 2.74831
head 15.6674 -4.59306 1.44941
rclavicle 7.55382e-015 -6.36111e-015
rhumerus 24.7612 -10.5301 -60.5912
rradius 54.2327
rwrist -5.33018
rhand -30.8078 -2.51625
rfingers 7.12502
rthumb -4.09754 -32.4566
lclavicle 7.55382e-015 -6.36111e-015
lhumerus -24.765 2.21406 85.1044
lradius 66.3806
lwrist 14.3393
lhand -9.03892 29.0842
lfingers 7.12502
lthumb 16.909 58.3681
rfemur -3.70277 -4.60029 25.3755
rtibia 8.81507
rfoot -11.8314 -12.3084
rtoes 16.7642
lfemur -74.168 -3.231 -26.8945
ltibia 81.6607
lfoot -10.6643 -7.54882
ltoes -3.92897
211
root 3.218 18.388 5.20323 -173.274 -17.7415 177.211
lowerback 9.42816 3.64189 0.939656
upperback 2.56775 4.79866 1.65626
thorax -2.66943 2.30456 0.634419
lowerneck -15.4724 -3.84993 -9.85019
upperneck 35.704 -6.46941 2.59591
head 15.5868 -4.54501 1.44511
rclavicle -3.18055e-015 -2.70347e-014
rhumerus 24.4575 -10.1994 -60.4162
rradius 55.2374
rwrist -5.09614
rhand -30.917 -2.5274
rfingers 7.12502
rthumb -4.20299 -32.4657
lclavicle -3.18055e-015 -2.70347e-014
lhumerus -24.1554 2.25746 85.5211
lradius 66.7102
lwrist 14.0794
lhand -9.41639 28.8773
lfingers 7.12502
lthumb 16.5456 58.1919
rfemur -3.82707 -4.70643 25.389
rtibia 9.02578
rfoot -11.8593 -12.2507
rtoes 16.3443
lfemur -74.2743 -3.21369 -27.0219
ltibia 81.7894
lfoot -10.5175 -7.48791
ltoes -4.12508
212
root 3.21375 18.3893 5.16789 -173.055 -17.8811 177.142
lowerback 9.46476 3.53024 1.08406
upperback 2.54566 4.6631 1.46937
thorax -2.68412 2.23828 0.374709
lowerneck -15.3982 -3.84266 -9.644
upperneck 35.5616 -6.49458 2.56834
head 15.4898 -4.52361 1.3985
rclavicle -7.95139e-014 -2.22639e-014
rhumerus 24.0826 -10.2336 -60.7096
rradius 56.1063
rwrist -4.92271
rhand -31.1423 -2.50691
rfingers 7.12502
rthumb -4.4205 -32.4408
lclavicle -7.95139e-014 -2.22639e-014
lhumerus -23.4256 1.69964 85.4986
lradius 67.0598
lwrist 14.2084
lhand -10.1897 29.2473
lfingers 7.12502
lthumb 15.8009 58.6225
rfemur -3.96098 -4.86577 25.3482
rtibia 9.14942
rfoot -11.8822 -12.1291
rtoes 16.6947
lfemur -74.514 -3.26895 -27.2559
ltibia 81.9655
lfoot -10.6319 -7.34785
ltoes -4.3016
